<?xml version="1.0" standalone="no"?>
<!DOCTYPE svg PUBLIC "-//W3C//DTD SVG 20010904//EN"
 "http://www.w3.org/TR/2001/REC-SVG-20010904/DTD/svg10.dtd">
<svg version="1.0" xmlns="http://www.w3.org/2000/svg"
 width="1000.000000pt" height="1000.000000pt" viewBox="0 0 1000.000000 1000.000000"
 preserveAspectRatio="xMidYMid meet">
<metadata>
Created by potrace 1.11, written by Peter Selinger 2001-2013
</metadata>
<g transform="translate(0.000000,1000.000000) scale(0.100000,-0.100000)"
fill="#000000" stroke="none">
<path d="M4602 9341 c-218 -220 -1241 -1246 -2272 -2281 -1031 -1035 -1966
-1973 -2078 -2085 l-202 -204 219 -220 219 -219 58 58 c59 58 3525 3536 4131
4145 l322 324 793 -795 c436 -437 1170 -1174 1631 -1637 461 -463 1119 -1124
1463 -1469 l626 -627 219 221 219 220 -300 302 c-439 439 -3840 3853 -4278
4292 l-372 375 -398 -400z"/>
<path d="M2878 6566 l-2115 -2115 1 -2118 1 -2118 1609 0 1610 0 -1 2117 0
2118 1059 0 c582 0 1058 -3 1058 -7 0 -5 1 -958 1 -2119 l0 -2110 1567 0 1567
1 1 2118 1 2118 -2115 2114 c-1163 1163 -2118 2115 -2122 2115 -4 0 -959 -951
-2122 -2114z"/>
</g>
</svg>
